<svg width="26" height="32" viewBox="0 0 26 32" fill="none" xmlns="http://www.w3.org/2000/svg">
<path d="M5.54531 25.0349C5.54531 26.1774 4.6165 27.1083 3.46479 27.1083C2.31308 27.1083 1.38428 26.1827 1.38428 25.0349C1.38428 23.8924 2.31308 22.9614 3.46479 22.9614C4.6165 22.9614 5.54531 23.8924 5.54531 25.0349Z" fill="#EA950C"/>
<path d="M2.91324 21.6918C3.55811 21.6918 4.08088 21.1709 4.08088 20.5282C4.08088 19.8855 3.55811 19.3645 2.91324 19.3645C2.26837 19.3645 1.74561 19.8855 1.74561 20.5282C1.74561 21.1709 2.26837 21.6918 2.91324 21.6918Z" fill="#EA950C"/>
<path d="M11.1712 29.0759C11.1712 30.6944 9.85492 32.0062 8.23085 32.0062C6.60677 32.0062 5.29053 30.6944 5.29053 29.0759C5.29053 27.4573 6.60677 26.1455 8.23085 26.1455C9.85492 26.1455 11.1712 27.4573 11.1712 29.0759Z" fill="#EA950C"/>
<path d="M7.64186 9.10302C7.64186 7.659 8.5282 6.40012 10.6989 5.82886C11.9674 5.49562 12.8803 4.40071 12.8803 3.09951V2.91438C12.8803 1.05778 11.166 -0.30689 9.34023 0.0580812C3.30037 1.26936 0.375977 5.06189 0.375977 9.45741C0.375977 21.1471 18.7397 17.1006 18.7397 22.9931C18.7397 24.4953 17.6676 25.7066 15.136 26.1667C13.7083 26.4259 12.6468 27.6213 12.6468 29.0653C12.6468 30.8426 14.2284 32.2337 15.9958 31.9745C22.7203 30.9854 25.995 27.0025 25.995 22.4536C26.0003 10.9014 7.64186 14.9002 7.64186 9.10302Z" fill="#EA950C"/>
<path d="M20.1196 6.97141C20.1196 5.82889 21.0484 4.89795 22.2001 4.89795C23.3465 4.89795 24.2807 5.8236 24.2807 6.97141C24.2807 8.11921 23.3519 9.04486 22.2001 9.04486C21.0537 9.04486 20.1196 8.11921 20.1196 6.97141Z" fill="#EA950C"/>
<path d="M22.7575 12.6469C23.4023 12.6469 23.9251 12.1259 23.9251 11.4833C23.9251 10.8406 23.4023 10.3196 22.7575 10.3196C22.1126 10.3196 21.5898 10.8406 21.5898 11.4833C21.5898 12.1259 22.1126 12.6469 22.7575 12.6469Z" fill="#EA950C"/>
<path d="M14.4937 2.93035C14.4937 1.31178 15.8152 0 17.4393 0C19.0634 0 20.3796 1.31178 20.3796 2.93035C20.3796 4.54891 19.0634 5.86069 17.4393 5.86069C15.8152 5.86069 14.4937 4.54891 14.4937 2.93035Z" fill="#EA950C"/>
</svg>
